<svg xmlns="http://www.w3.org/2000/svg" version="1.1" xmlns:xlink="http://www.w3.org/1999/xlink" xmlns:svgjs="http://svgjs.dev/svgjs" width="1500" height="1500" viewBox="0 0 1500 1500"><rect width="1500" height="1500" fill="#131313"></rect><g transform="matrix(0.6666666666666666,0,0,0.6666666666666666,249.7199582683793,48.901484480431975)"><svg viewBox="0 0 176 247" data-background-color="#131313" preserveAspectRatio="xMidYMid meet" height="2105" width="1500" xmlns="http://www.w3.org/2000/svg" xmlns:xlink="http://www.w3.org/1999/xlink"><g id="tight-bounds" transform="matrix(1,0,0,1,0.0492873447652471,-0.09999999999999432)"><svg viewBox="0 0 175.9014253104695 247.2" height="247.2" width="175.9014253104695"><g><svg viewBox="0 0 388.0926605504587 545.3992514201834" height="247.2" width="175.9014253104695"><g transform="matrix(1,0,0,1,0,298.1992514201835)"><svg viewBox="0 0 388.0926605504587 247.19999999999996" height="247.19999999999996" width="388.0926605504587"><g id="textblocktransform"><svg viewBox="0 0 388.0926605504587 247.19999999999996" height="247.19999999999996" width="388.0926605504587" id="textblock"><g><svg viewBox="0 0 388.0926605504587 247.19999999999996" height="247.19999999999996" width="388.0926605504587"><g transform="matrix(1,0,0,1,0,0)"><svg width="388.0926605504587" viewBox="1.22 -37.94 66.84 42.58" height="247.19999999999996" data-palette-color="#f4dcfe"><path d="M21.88 4.64L19.09-0.05Q16.89 0.15 14.72 0.12 12.55 0.1 10.55-0.27 8.54-0.63 6.86-1.44 5.18-2.25 3.91-3.56 2.64-4.88 1.93-6.86 1.22-8.84 1.22-11.62L1.22-11.62Q1.22-13.33 1.64-15.48 2.05-17.63 2.86-19.9 3.66-22.17 4.83-24.34 6.01-26.51 7.54-28.2 9.08-29.88 10.91-30.91 12.74-31.93 14.89-31.93L14.89-31.93Q16.36-31.93 17.75-30.81 19.14-29.69 20.34-27.95 21.53-26.22 22.51-24.12 23.49-22.02 24.19-19.97 24.9-17.92 25.29-16.26 25.68-14.6 25.68-13.77L25.68-13.77Q25.68-11.96 25.42-10.4 25.15-8.84 24.56-7.4 23.97-5.96 23.07-4.61 22.17-3.27 20.95-1.9L20.95-1.9Q21.14-1.61 21.56-0.81 21.97 0 22.41 0.9 22.85 1.81 23.24 2.59 23.63 3.37 23.78 3.71L23.78 3.71Q23.83 3.81 23.88 4.17 23.93 4.54 23.93 4.64L23.93 4.64 21.88 4.64ZM3.13-11.62L3.13-11.62Q3.13-9.42 3.88-7.59 4.64-5.76 5.98-4.49 7.32-3.22 9.13-2.51 10.94-1.81 13.04-1.81L13.04-1.81Q13.38-1.81 14.06-1.81 14.75-1.81 15.45-1.9 16.16-2 16.72-2.32 17.29-2.64 17.29-3.27L17.29-3.27Q17.29-4.69 16.58-5.81 15.87-6.93 15.01-7.98 14.16-9.03 13.45-10.03 12.74-11.04 12.74-12.21L12.74-12.21 14.4-12.21 20.02-4.74Q21.04-5.47 21.75-6.52 22.46-7.57 22.92-8.76 23.39-9.96 23.58-11.23 23.78-12.5 23.78-13.67L23.78-13.67Q23.78-15.72 23.27-17.7 22.75-19.68 21.92-21.44 21.09-23.19 20.09-24.68 19.09-26.17 18.14-27.32 17.19-28.47 16.43-29.15 15.67-29.83 15.33-30.03L15.33-30.03Q12.35-29.3 10.08-27.42 7.81-25.54 6.25-23.02 4.69-20.51 3.91-17.53 3.13-14.55 3.13-11.62ZM27.19-18.95L27.19-18.95Q27.19-19.19 27.51-19.43 27.83-19.68 28.29-19.82 28.76-19.97 29.2-20.02 29.64-20.07 29.83-19.87L29.83-19.87Q30.12-13.82 30.98-10.23 31.83-6.64 32.93-4.98 34.03-3.32 35.3-3.3 36.57-3.27 37.79-4.37 39.01-5.47 40.06-7.37 41.11-9.28 41.77-11.47 42.43-13.67 42.58-15.87 42.72-18.07 42.19-19.78L42.19-19.78 45.11-20.12Q45.16-19.38 45.38-17.7 45.6-16.02 45.87-13.89 46.14-11.77 46.48-9.47 46.82-7.18 47.07-5.2 47.31-3.22 47.51-1.83 47.7-0.44 47.7-0.1L47.7-0.1 45.6-0.1 43.31-8.54Q42.62-6.84 41.65-5.27 40.67-3.71 39.52-2.54 38.38-1.37 37.11-0.71 35.84-0.05 34.59-0.17 33.35-0.29 32.18-1.32 31-2.34 30-4.57 29-6.79 28.27-10.3 27.54-13.82 27.19-18.95ZM52.63 0.1L51.9-18.95Q52.49-18.95 52.9-18.99 53.32-19.04 53.61-18.51L53.61-18.51Q53.75-16.31 53.95-14.04 54.15-11.77 54.34-9.47 54.54-7.18 54.61-4.86 54.68-2.54 54.63-0.34L54.63-0.34Q54.63-0.05 54.49 0.02 54.34 0.1 54.07 0.07 53.8 0.05 53.44 0.02 53.07 0 52.63 0.1L52.63 0.1ZM49.07-27.69L49.07-27.69Q49.07-28.03 49.12-28.44 49.16-28.86 49.34-29.2 49.51-29.54 49.78-29.79 50.04-30.03 50.43-30.03L50.43-30.03Q51.02-30.03 51.61-29.98 52.19-29.93 52.73-29.76 53.27-29.59 53.61-29.22 53.95-28.86 53.95-28.17L53.95-28.17Q53.95-27 53.07-26.1 52.19-25.2 50.92-25.2L50.92-25.2Q49.95-25.2 49.51-25.95 49.07-26.71 49.07-27.69ZM51.9-27.44L51.9-27.44Q51.75-27.44 51.75-27.2 51.75-26.95 51.9-26.95L51.9-26.95Q52.09-26.95 52.09-27.2 52.09-27.44 51.9-27.44ZM57.85-37.94L57.85-37.94Q58.54-37.84 59.05-37.57 59.56-37.3 59.86-36.62L59.86-36.62Q59.86-35.69 59.93-34.06 60-32.42 60.08-30.27 60.15-28.13 60.25-25.63 60.34-23.14 60.44-20.61 60.54-18.07 60.61-15.58 60.69-13.09 60.76-10.94 60.83-8.79 60.88-7.13 60.93-5.47 60.98-4.59L60.98-4.59Q60.98-4.49 60.95-4.25 60.93-4 60.91-3.66 60.88-3.32 60.86-3 60.83-2.69 60.83-2.54L60.83-2.54Q60.78-2.25 60.78-1.83 60.78-1.42 60.69-1.03 60.59-0.63 60.37-0.32 60.15 0 59.66 0.05L59.66 0.05 58.83-0.98Q58.78-1.03 58.71-2.81 58.64-4.59 58.51-7.45 58.39-10.3 58.29-13.89 58.2-17.48 58.07-21.14 57.95-24.8 57.85-28.17 57.76-31.54 57.71-33.98L57.71-33.98Q57.71-34.18 57.73-34.77 57.76-35.35 57.78-35.96 57.81-36.57 57.83-37.13 57.85-37.7 57.85-37.94ZM64.93-37.94L64.93-37.94Q65.62-37.84 66.13-37.57 66.64-37.3 66.93-36.62L66.93-36.62Q66.93-35.69 67.01-34.06 67.08-32.42 67.15-30.27 67.23-28.13 67.32-25.63 67.42-23.14 67.52-20.61 67.62-18.07 67.69-15.58 67.76-13.09 67.84-10.94 67.91-8.79 67.96-7.13 68.01-5.47 68.06-4.59L68.06-4.59Q68.06-4.49 68.03-4.25 68.01-4 67.98-3.66 67.96-3.32 67.93-3 67.91-2.69 67.91-2.54L67.91-2.54Q67.86-2.25 67.86-1.83 67.86-1.42 67.76-1.03 67.67-0.63 67.45-0.32 67.23 0 66.74 0.05L66.74 0.05 65.91-0.98Q65.86-1.03 65.79-2.81 65.71-4.59 65.59-7.45 65.47-10.3 65.37-13.89 65.27-17.48 65.15-21.14 65.03-24.8 64.93-28.17 64.83-31.54 64.78-33.98L64.78-33.98Q64.78-34.18 64.81-34.77 64.83-35.35 64.86-35.96 64.88-36.57 64.91-37.13 64.93-37.7 64.93-37.94Z" opacity="1" transform="matrix(1,0,0,1,0,0)" fill="#f4dcfe" class="wordmark-text-0" data-fill-palette-color="primary" id="text-0"></path></svg></g></svg></g></svg></g></svg></g><g transform="matrix(1,0,0,1,74.1256981651376,0)"><svg viewBox="0 0 239.84126422018346 239.84126422018352" height="239.84126422018352" width="239.84126422018346"><g><svg></svg></g><g id="icon-0"><svg viewBox="0 0 239.84126422018346 239.84126422018352" height="239.84126422018352" width="239.84126422018346"><g><path transform="scale(2.39841,2.39841)" d="M30 100c-16.569 0-30-13.431-30-30v-40c0-16.569 13.431-30 30-30h40c16.569 0 30 13.431 30 30v40c0 16.569-13.431 30-30 30z" fill="#eef85d" fill-rule="nonzero" stroke="none" stroke-width="1" stroke-linecap="butt" stroke-linejoin="miter" stroke-miterlimit="10" stroke-dasharray="" stroke-dashoffset="0" font-family="none" font-weight="none" font-size="none" text-anchor="none" style="mix-blend-mode: normal" data-fill-palette-color="accent"></path></g><g transform="matrix(1,0,0,1,47.97089248444969,47.968252844036726)"><svg viewBox="0 0 143.89947925128408 143.90475853211007" height="143.90475853211007" width="143.89947925128408"><g><svg xmlns="http://www.w3.org/2000/svg" xmlns:xlink="http://www.w3.org/1999/xlink" version="1.1" x="0" y="0" viewBox="14.504 14.50237896033955 70.99251961272861 70.99512413534072" enable-background="new 0 0 100 100" xml:space="preserve" height="143.90475853211007" width="143.89947925128408" class="icon-dxe-0" data-fill-palette-color="quaternary" id="dxe-0"><g fill="#131313" data-fill-palette-color="quaternary"><path fill="#131313" d="M80.434 14.564C67.13 17.387 55.057 24.737 47.399 35.609 39.937 46.173 38.176 58.331 41.389 69.287L32.809 81.445C31.998 82.451 32.25 84.128 33.312 84.854 34.346 85.609 35.995 85.246 36.666 84.156L45.386 71.802C58.41 68.755 70.288 61.601 77.834 50.897 85.52 40.024 87.393 27.42 83.592 16.324 83.089 14.815 81.607 14.313 80.434 14.564M75.347 21.048H75.375L64.895 35.944 62.156 27.672C66.152 24.905 70.624 22.669 75.347 21.048M80.154 22.473C81.607 30.942 79.791 39.941 73.977 48.158 68.276 56.262 59.64 62.16 49.83 65.514zM58.215 30.718L61.513 40.751 45.051 64.089C43.598 55.593 45.442 46.565 51.256 38.348 53.24 35.525 55.588 32.982 58.215 30.718M16.907 80.746C15.65 80.746 14.504 81.864 14.504 83.122S15.65 85.525 16.907 85.497H26.354C27.611 85.525 28.757 84.38 28.757 83.122S27.611 80.746 26.354 80.746z" data-fill-palette-color="quaternary"></path></g></svg></g></svg></g></svg></g></svg></g><g></g></svg></g><defs></defs></svg><rect width="175.9014253104695" height="247.2" fill="none" stroke="none" visibility="hidden"></rect></g></svg></g></svg>